<?xml version="1.0" encoding="utf-8"?>
<!-- Generator: Adobe Illustrator 27.1.0, SVG Export Plug-In . SVG Version: 6.00 Build 0)  -->
<svg version="1.1" id="Layer_1" xmlns="http://www.w3.org/2000/svg" xmlns:xlink="http://www.w3.org/1999/xlink" x="0px" y="0px"
	 viewBox="0 0 1460 948.2" style="enable-background:new 0 0 1460 948.2;" xml:space="preserve">
<style type="text/css">
	.st0{fill:#F0F0EA;}
	.st1{enable-background:new    ;}
	.st2{fill:#4F435A;}
	.st3{fill:#FFFFFF;}
</style>
<path id="Union_3" class="st0" d="M705.8,205.1c-17.5,8.8-38.6,5.8-53.2-7.3c-19.6,17.7-49.8,16.1-67.5-3.4
	c-7.9-8.8-12.3-20.2-12.3-32c-19.1-18.3-19.7-48.5-1.4-67.6c18.3-19.1,48.5-19.7,67.6-1.4c1,0.9,1.9,1.9,2.8,2.9
	c14.7-21.9,44.4-27.7,66.3-13c2.8,1.9,5.4,4.1,7.7,6.5c21.1-15.9,51.1-11.6,66.9,9.5c13.9,18.5,12.6,44.2-3.1,61.2
	c0.2,1.6,0.2,3.3,0.2,4.9c0.1,26.3-21.1,47.7-47.4,47.8C722.9,213.2,713.7,210.4,705.8,205.1L705.8,205.1z"/>
<g>
	<g class="st1">
		<path class="st2" d="M690.5,110.9c0,11.4,0,22.9,0,34.6c0,11.7,0,23.2,0,34.6c-2.9,0-5.8,0-8.7,0c-2.9,0-5.9,0-8.8,0
			c0-8.1,0-16.3,0-24.7c0-8.3,0-16.5,0-24.5c-1.9,0.4-3.9,0.8-5.9,1.2c-2,0.4-3.9,0.9-5.9,1.2c0-2.7,0-5.4,0-8.1c0-2.7,0-5.4,0-8.1
			c4.8-1.1,9.7-2.1,14.6-3.1C680.8,113.1,685.7,112,690.5,110.9z"/>
	</g>
</g>
<path id="Union_4" class="st0" d="M700.4,424.4c-17.5,8.8-38.6,5.8-53.2-7.3c-19.6,17.7-49.8,16.1-67.5-3.4
	c-7.9-8.8-12.3-20.2-12.3-32c-19.1-18.3-19.7-48.5-1.4-67.6c18.3-19.1,48.5-19.7,67.6-1.4c1,0.9,1.9,1.9,2.8,2.9
	c14.7-21.9,44.4-27.7,66.3-13c2.8,1.9,5.4,4.1,7.7,6.5c21.1-15.9,51.1-11.6,66.9,9.5c13.9,18.5,12.6,44.2-3.1,61.2
	c0.2,1.6,0.2,3.3,0.2,4.9c0.1,26.3-21.1,47.7-47.4,47.8C717.5,432.5,708.2,429.7,700.4,424.4L700.4,424.4z"/>
<g>
	<g class="st1">
		<path class="st2" d="M653.5,393.4c0-2.6,0-5.2,0-8s0-5.3,0-8c2.7-2.5,5.3-5.1,8-7.8c2.7-2.6,5.3-5.2,8-7.8c3.1-3,5.4-5.4,7-7.2
			c1.6-1.8,2.7-3.4,3.3-4.6c0.6-1.3,1-2.4,1-3.5c0-2.2-1.3-3.8-3.8-4.8c-2.5-1-5.8-1.2-9.8-0.9c-4,0.4-8.3,1.5-12.8,3.3
			c0-2.7,0-5.5,0-8.4c0-2.8,0-5.6,0-8.3c6.7-2.2,12.7-3.3,18.1-3.3c5.4,0,10.1,0.9,14,2.6c3.9,1.8,6.9,4.2,9,7.4
			c2.1,3.1,3.1,6.8,3.1,10.9c0,4.1-1.1,8-3.3,11.7c-2.2,3.6-5.6,7.6-10.1,12c-1.5,1.4-2.9,2.8-4.4,4.3c-1.5,1.5-2.9,2.9-4.4,4.3
			c3.6,0,7.2,0,10.8,0c3.6,0,7.2,0,10.9,0c0,2.6,0,5.2,0,8s0,5.4,0,8c-7.4,0-14.9,0-22.4,0S660.9,393.4,653.5,393.4z"/>
	</g>
</g>
<circle id="Ellipse_35" class="st2" cx="962.8" cy="158" r="108"/>
<g id="Layer_1_00000047775839011065909180000014890692633860840347_" transform="translate(28.133 28.105)">
	<g id="Group_3_00000000208033434382770760000015608115364849174665_" transform="translate(0 0)">
		<path id="Path_7_00000175286854549515331740000009643674738278759316_" class="st3" d="M1014.2,118.4c-1.1-8.4-3.7-16.6-7.5-24.1
			c-4.3-8.7-10.2-16.5-17.3-23c-6.9-6.4-14.9-11.5-23.5-15.3c-12.8-5.5-26.2-6.7-39.8-5.7c-9.8,0.9-19.2,3.7-27.9,8.3
			c-19.4,10-33.9,27.5-40.2,48.4c-1.9,5.9-2.9,12.1-3,18.4c-0.1,5.3-0.3,10.7,0.5,16c1.4,10,4.7,19.7,9.8,28.4
			c4.5,8,10.4,15.1,17.4,21c11.6,10,25.8,16.4,41,18.5c1.8,0.2,3.6,0.1,5.4,0.4h11.2c0.6-0.2,1.3-0.3,2-0.1c2,0,4-0.2,6-0.5
			c18.4-3,35.1-12.4,47.2-26.5c9.7-11,16.1-24.4,18.5-38.9c0.4-2.5,0.3-5,0.7-7.5v-12.1C1014.3,122.2,1014.4,120.3,1014.2,118.4
			L1014.2,118.4z M934.8,196.4c-36.7,0-66.4-29.7-66.4-66.4c0-36.7,29.7-66.4,66.4-66.4c36.7,0,66.4,29.7,66.4,66.4c0,0,0,0.1,0,0.1
			C1001.1,166.7,971.4,196.4,934.8,196.4L934.8,196.4z"/>
		<path id="Path_8_00000065790737217565614690000002554182199618658455_" class="st3" d="M960.4,126.3c-4.8-3.5-9.6-6.9-14.3-10.4
			c-5.8-4.2-11.7-8.5-17.5-12.7c-2.4-1.8-5-1.4-6.3,0.8c-0.5,1-0.7,2.1-0.6,3.2v35.4c0,3.9-0.1,7.9,0.1,11.8c0,2.1,1.7,3.9,3.9,3.9
			c0.8,0,1.5-0.2,2.2-0.7c0.5-0.3,1-0.7,1.5-1c10.4-7.5,20.7-15,31.1-22.6C963.7,131.6,963.7,128.7,960.4,126.3L960.4,126.3z"/>
	</g>
</g>
<image style="overflow:visible;enable-background:new    ;" width="680" height="678" id="Image_6" xlink:href="6E27C954BCB2FF8F.png"  transform="matrix(0.5348 0.1433 -0.1433 0.5348 1015.4346 281.9717)">
</image>
<circle id="Ellipse_27" class="st3" cx="-595.4" cy="640.6" r="81.5"/>
<image style="overflow:visible;enable-background:new    ;" width="512" height="512" id="Image_11" xlink:href="6E27C954BCB2FF8A.png"  transform="matrix(0.5801 0 0 0.5801 59.658 145.9294)">
</image>
<circle id="Ellipse_26_00000024723752808934053320000001689221815146345872_" class="st3" cx="-350.8" cy="640.6" r="127"/>
<g>
	<path id="Path_10_00000088833439807600921710000002848463451366448826_" class="st2" d="M-568.1,647.1c-0.5,4.2-1.8,8.2-3.9,11.8
		c-2,3.3-4.7,6.2-7.9,8.5c-3.6,2.6-7.8,4.2-12.1,4.8c-10.1,1.4-18-2.5-24.5-9.8c-3.9-4.5-6.2-10.2-6.4-16.2
		c-0.4-5.8,1.1-11.5,4.2-16.4c1.3-2.2,4.3-2.9,6.5-1.6c2,1.1,2.6,4.6,1.2,6.7c-4.8,6.9-3.4,16.7,2.4,22.5c4.1,4.1,8.7,6.3,14.4,5.8
		c6.9-0.6,12.9-5,15.5-11.4c2.8-7.1,1.6-13.7-3-19.5c-2.8-3.5-6.9-5.2-11.4-5.8c-1-0.2-2,0.4-2.3,1.4c0.2,1.7,0.2,3.4,0,5.1
		c-0.7,1.2-1.4,1.5-2.6,0.5c-4-3.2-8.2-6.4-12.3-9.5c-2.6-2-2.6-3.3,0-5.2c4.5-3.3,9-6.7,13.4-10h0.5c0.3,0.3,0.6,0.2,0.9,0.4
		c0.3,0.2,0.4,0.6,0.5,0.9c0.2,1.6,0,3.1,0.2,4.7c0.4,1.3,1.5,1.6,2.7,1.8c8.6,1.2,16.3,6.2,20.8,13.6c1.3,2.3,2.2,4.7,2.7,7.2
		C-567.9,640.7-567.7,643.9-568.1,647.1"/>
	<g>
		<path id="Path_15_00000147197943468136883610000008161134507219459238_" class="st2" d="M-535.8,627.5
			c-3.8-17.2-14.8-31.9-30.3-40.4c-7.3-4.1-15.3-6.5-23.6-7.2c-4.3-0.2-8.6-0.2-12.8,0.2c-5.8,0.5-11.5,2-16.9,4.4
			c-9.8,4.2-18.4,10.8-24.8,19.4c-6.9,9-11.1,19.7-12,31c-0.3,4.3-0.2,8.6,0.2,12.9c0.5,5.8,1.9,11.4,4.3,16.7
			c5.3,12.7,14.8,23.2,26.9,29.8c5.6,3.1,11.6,5.3,17.9,6.4c1.7,0.3,3.4,0.6,5.1,0.9l0,0h12.9c0.2-0.1,0.4-0.2,0.6-0.2
			c2-0.3,4.1-0.5,6.1-1C-549.4,693-528.6,660.4-535.8,627.5C-535.8,627.5-535.8,627.5-535.8,627.5 M-554.9,672.2
			c-7.3,9.5-17.8,16.1-29.5,18.6c-1.7,0.4-3.4,0.6-5.1,0.8c-0.2,0-0.4,0.1-0.5,0.2h-10.9c-1.4-0.3-2.9-0.5-4.3-0.8
			c-5.3-0.9-10.4-2.8-15-5.4c-10.2-5.5-18.1-14.4-22.6-25c-2-4.4-3.2-9.2-3.6-14c-0.3-3.6-0.4-7.3-0.2-10.9
			c0.8-9.5,4.3-18.5,10.1-26.1c5.4-7.2,12.6-12.8,20.9-16.3c4.5-2,9.3-3.3,14.2-3.7c3.6-0.3,7.2-0.4,10.8-0.2
			c7,0.6,13.8,2.7,19.9,6.1c24.9,13.6,34,44.9,20.3,69.8C-551.7,667.7-553.2,670-554.9,672.2"/>
	</g>
</g>
<ellipse id="Ellipse_28_00000069383869385657468690000018400471366015733412_" class="st3" cx="-106.3" cy="640.8" rx="81.5" ry="78"/>
<g id="Group_4-2_00000063612862246514040130000005011753288979624360_" transform="translate(-63 -271)">
	<path id="Path_11_00000023972069561123191230000001141732820375232128_" class="st2" d="M-298.7,1013.2c-2.8-0.5-5.7-1-8.5-1.5
		c-10.5-1.9-20.6-5.5-29.8-10.7c-20.2-11-36-28.5-44.9-49.7c-4-8.8-6.4-18.2-7.2-27.8c-0.5-7.2-1-14.5-0.3-21.6
		c1.6-18.8,8.6-36.7,20.1-51.7c10.7-14.3,25-25.4,41.4-32.4c9-3.8,18.4-6.7,28.2-7.3c7.1-0.6,14.3-0.7,21.4-0.3
		c13.9,1.2,27.3,5.3,39.4,12.1c49.4,27.1,67.4,89,40.4,138.4c-2.6,4.8-5.6,9.4-9,13.7c-14.5,18.8-35.2,31.9-58.5,36.9
		c-3.3,0.8-6.8,1.1-10.1,1.6c-0.4,0.1-0.7,0.2-1.1,0.4L-298.7,1013.2L-298.7,1013.2z M-370.8,911.6c-0.1,45.8,37,83.1,82.8,83.2
		s83.1-37,83.2-82.8c0.1-45.8-37-83.1-82.8-83.2c-45.6-0.1-82.7,36.5-83.2,82.1C-370.8,911.1-370.8,911.3-370.8,911.6"/>
	<path id="Path_12_00000022560125440367092500000009693937057092121216_" class="st2" d="M-300.8,949.8v-76.2h-25.3v76.2H-300.8z
		 M-275,873.5v76.3h25.2v-76.3L-275,873.5L-275,873.5z"/>
	
		<rect id="Rectangle_11_00000023257160486464303300000005357444374501756580_" x="-326.1" y="873.6" class="st2" width="25.3" height="76.2"/>
	
		<rect id="Rectangle_12_00000029762814183207614440000010358529261911054526_" x="-275" y="873.5" class="st2" width="25.2" height="76.3"/>
</g>
<g id="Group_4-2_00000019669006249661456840000013796123394937804941_" transform="translate(-63 -271)">
	<path id="Path_13_00000181068655730634799680000017654304281627856035_" class="st2" d="M17.4,903c-0.9-6.4-2.8-12.7-5.8-18.4
		C8.4,878,3.9,872-1.5,867c-5.3-4.9-11.4-8.8-18-11.7c-9.8-4.2-20-5.1-30.4-4.3c-7.5,0.7-14.7,2.8-21.3,6.4
		c-14.8,7.7-25.9,21-30.7,37c-1.4,4.5-2.2,9.3-2.3,14c-0.2,4.1-0.1,8.2,0.4,12.2c1.1,7.6,3.6,15,7.5,21.7
		c9.4,16.4,25.8,27.6,44.6,30.2c1.4,0.2,2.8,0.1,4.1,0.3h8.6c0.5-0.2,1-0.2,1.5-0.1c1.5,0,3.1-0.1,4.6-0.4
		c25.6-4.3,45.7-24.3,50.2-49.9c0.3-1.9,0.3-3.8,0.5-5.8v-9.3C17.5,905.9,17.6,904.5,17.4,903L17.4,903z M-43.2,962.6
		c-28,0-50.7-22.7-50.7-50.7s22.7-50.7,50.7-50.7s50.7,22.7,50.7,50.7l0,0v0.1C7.5,939.9-15.2,962.6-43.2,962.6"/>
	<path id="Path_14_00000158733119613356003000000008485113577154582662_" class="st2" d="M-23.7,909.1c-3.7-2.7-7.3-5.3-11-8
		c-4.5-3.2-8.9-6.5-13.4-9.7c-1.8-1.3-3.8-1.1-4.8,0.6c-0.4,0.7-0.5,1.6-0.4,2.4v27c0,3-0.1,6,0,9c0,1.6,1.3,3,2.9,3
		c0.6,0,1.2-0.2,1.7-0.5c0.4-0.2,0.8-0.5,1.2-0.8c7.9-5.7,15.8-11.5,23.7-17.2C-21.1,913.1-21.1,910.9-23.7,909.1"/>
</g>
</svg>
