<?xml version="1.0" encoding="UTF-8"?>
<svg id="Layer_2" data-name="Layer 2" xmlns="http://www.w3.org/2000/svg" viewBox="0 0 163 156">
  <defs>
    <style>
      .cls-1 {
        fill: #fff;
      }

      .cls-2 {
        fill: #4f435a;
      }
    </style>
  </defs>
  <g id="Layer_1-2" data-name="Layer 1">
    <ellipse id="Ellipse_28" data-name="Ellipse 28" class="cls-1" cx="81.5" cy="78" rx="81.5" ry="78"/>
    <g id="Group_4-2" data-name="Group 4-2">
      <path id="Path_13" data-name="Path 13" class="cls-2" d="m142.21,69.23c-.87-6.42-2.81-12.65-5.75-18.43-3.28-6.63-7.76-12.59-13.21-17.59-5.29-4.87-11.37-8.81-17.97-11.65-9.75-4.24-19.99-5.15-30.41-4.32-7.46.66-14.7,2.82-21.3,6.35-14.8,7.68-25.87,21-30.71,36.96-1.44,4.54-2.22,9.27-2.3,14.03-.18,4.08-.06,8.16.35,12.22,1.06,7.65,3.59,15.01,7.46,21.69,9.38,16.43,25.85,27.59,44.59,30.23,1.37.17,2.76.07,4.11.3h8.57c.49-.16,1-.2,1.51-.11,1.54-.01,3.08-.14,4.61-.38,25.61-4.34,45.73-24.33,50.23-49.91.34-1.91.25-3.85.54-5.76v-9.28c-.23-1.44-.12-2.91-.3-4.35h0Zm-60.6,59.58c-28,.01-50.72-22.68-50.73-50.69s22.68-50.72,50.69-50.73,50.72,22.68,50.73,50.69h0v.1c-.06,27.96-22.73,50.6-50.69,50.62"/>
      <path id="Path_14" data-name="Path 14" class="cls-2" d="m101.13,75.27c-3.65-2.65-7.3-5.3-10.95-7.96-4.45-3.24-8.9-6.47-13.35-9.71-1.85-1.34-3.8-1.09-4.84.58-.37.75-.53,1.58-.44,2.41v27.01c0,3.01-.05,6.03.04,9.04,0,1.64,1.31,2.97,2.95,2.98.59,0,1.17-.17,1.66-.5.41-.24.8-.51,1.18-.79,7.91-5.74,15.82-11.49,23.73-17.24,2.53-1.84,2.53-4.01.02-5.83"/>
    </g>
  </g>
</svg>