<?xml version="1.0" encoding="UTF-8"?>
<svg id="Layer_2" data-name="Layer 2" xmlns="http://www.w3.org/2000/svg" viewBox="0 0 254 254">
  <defs>
    <style>
      .cls-1 {
        fill: #fff;
      }

      .cls-2 {
        fill: #4f435a;
      }
    </style>
  </defs>
  <g id="Layer_1-2" data-name="Layer 1">
    <circle id="Ellipse_26" data-name="Ellipse 26" class="cls-1" cx="127" cy="127" r="127"/>
    <g id="Group_4-2" data-name="Group 4-2">
      <path id="Path_11" data-name="Path 11" class="cls-2" d="m116.13,228.64c-2.84-.51-5.68-1.02-8.51-1.53-10.47-1.87-20.55-5.49-29.83-10.7-20.16-10.99-35.98-28.51-44.86-49.68-3.97-8.79-6.41-18.2-7.2-27.82-.47-7.18-.96-14.46-.32-21.6,1.62-18.8,8.6-36.74,20.1-51.7,10.7-14.25,24.99-25.42,41.41-32.36,9.02-3.84,18.38-6.68,28.2-7.33,7.11-.62,14.26-.73,21.39-.33,13.86,1.16,27.31,5.27,39.44,12.07,49.37,27.07,67.44,89.04,40.36,138.4-2.63,4.79-5.64,9.36-9,13.67-14.54,18.8-35.25,31.87-58.48,36.88-3.33.75-6.75,1.09-10.13,1.65-.37.09-.73.22-1.08.38h-21.52.01ZM44,126.99c-.12,45.85,36.95,83.11,82.8,83.22,45.85.12,83.11-36.95,83.22-82.8.12-45.85-36.95-83.11-82.8-83.22-45.56-.12-82.71,36.51-83.22,82.07,0,.24,0,.48,0,.72"/>
      <path id="Path_12" data-name="Path 12" class="cls-2" d="m113.99,165.2v-76.22h-25.26v76.22h25.26Zm25.8-76.3v76.28h25.21v-76.28h-25.21Z"/>
      <rect id="Rectangle_11" data-name="Rectangle 11" class="cls-2" x="88.73" y="88.98" width="25.26" height="76.22"/>
      <rect id="Rectangle_12" data-name="Rectangle 12" class="cls-2" x="139.8" y="88.89" width="25.21" height="76.28"/>
    </g>
  </g>
</svg>