<?xml version="1.0" encoding="UTF-8"?>
<svg id="Layer_2" data-name="Layer 2" xmlns="http://www.w3.org/2000/svg" viewBox="0 0 163 163">
  <defs>
    <style>
      .cls-1 {
        fill: #fff;
      }

      .cls-2 {
        fill: #4f435a;
      }
    </style>
  </defs>
  <g id="Layer_1-2" data-name="Layer 1">
    <circle id="Ellipse_27" data-name="Ellipse 27" class="cls-1" cx="81.5" cy="81.5" r="81.5"/>
    <g>
      <path id="Path_10" data-name="Path 10" class="cls-2" d="m108.78,87.97c-.46,4.16-1.79,8.17-3.9,11.78-2.02,3.33-4.69,6.21-7.86,8.46-3.58,2.58-7.75,4.22-12.13,4.77-10.06,1.39-18.03-2.46-24.48-9.79-3.95-4.5-6.2-10.23-6.38-16.21-.37-5.76,1.09-11.48,4.17-16.36,1.35-2.23,4.25-2.95,6.48-1.6,2.01,1.1,2.63,4.64,1.2,6.72-4.76,6.94-3.38,16.74,2.38,22.48,4.06,4.05,8.7,6.26,14.38,5.85,6.89-.62,12.87-5.01,15.52-11.41,2.81-7.13,1.63-13.7-3-19.48-2.78-3.47-6.87-5.23-11.35-5.8-1.01-.21-2.01.39-2.3,1.38.24,1.71.24,3.44,0,5.15-.67,1.2-1.4,1.47-2.61.5-4.05-3.23-8.17-6.37-12.27-9.53-2.56-1.97-2.58-3.28-.02-5.19,4.47-3.33,8.95-6.65,13.43-9.97h.46c.26.27.65.24.94.43.27.24.45.57.51.93.22,1.55,0,3.12.19,4.68.43,1.31,1.49,1.65,2.7,1.83,8.63,1.18,16.27,6.19,20.78,13.65,1.27,2.25,2.18,4.68,2.71,7.21.66,3.13.81,6.34.44,9.52"/>
      <path id="Path_15" data-name="Path 15" class="cls-2" d="m141.06,68.37c-3.81-17.18-14.84-31.89-30.26-40.37-7.27-4.07-15.32-6.53-23.62-7.23-4.27-.24-8.55-.17-12.81.2-5.84.5-11.55,1.98-16.89,4.39-9.83,4.16-18.39,10.84-24.8,19.38-6.89,8.96-11.06,19.7-12.03,30.96-.27,4.31-.21,8.63.19,12.93.47,5.76,1.93,11.39,4.31,16.66,5.32,12.68,14.79,23.17,26.87,29.75,5.55,3.12,11.59,5.29,17.86,6.41,1.7.3,3.4.61,5.1.92h12.88c.21-.1.42-.17.64-.23,2.02-.33,4.07-.54,6.07-.99,32.93-7.25,53.76-39.82,46.51-72.76,0,0,0-.02,0-.03m-19.09,44.75c-7.33,9.48-17.77,16.06-29.48,18.59-1.68.38-3.4.55-5.1.83-.19.05-.37.11-.54.19h-10.85c-1.43-.26-2.86-.52-4.29-.77-5.28-.94-10.36-2.77-15.03-5.39-10.16-5.54-18.13-14.37-22.61-25.04-2-4.43-3.23-9.17-3.63-14.02-.33-3.62-.39-7.26-.16-10.89.82-9.47,4.33-18.52,10.13-26.05,5.4-7.18,12.6-12.81,20.87-16.31,4.5-2.03,9.3-3.27,14.21-3.69,3.59-.31,7.19-.37,10.78-.17,6.99.58,13.76,2.66,19.88,6.08,24.88,13.64,33.99,44.88,20.35,69.76-1.32,2.42-2.84,4.72-4.54,6.89"/>
    </g>
  </g>
</svg>